<svg width="25" height="24" viewBox="0 0 25 24" fill="none" xmlns="http://www.w3.org/2000/svg">
<g clip-path="url(#clip0_1633_5778)">
<path d="M20.7915 15.5C19.5415 15.5 18.3415 15.3 17.2215 14.93C16.8715 14.82 16.4815 14.9 16.2015 15.17L14.0015 17.37C11.1715 15.93 8.8515 13.62 7.4115 10.79L9.6115 8.58C9.8915 8.31 9.9715 7.92 9.8615 7.57C9.4915 6.45 9.2915 5.25 9.2915 4C9.2915 3.45 8.8415 3 8.2915 3H4.7915C4.2415 3 3.7915 3.45 3.7915 4C3.7915 13.39 11.4015 21 20.7915 21C21.3415 21 21.7915 20.55 21.7915 20V16.5C21.7915 15.95 21.3415 15.5 20.7915 15.5ZM12.7915 3V13L15.7915 10H21.7915V3H12.7915Z" fill="#636363"/>
</g>
<defs>
<clipPath id="clip0_1633_5778">
<rect width="24" height="24" fill="white" transform="translate(0.791504)"/>
</clipPath>
</defs>
</svg>
