<svg width="24" height="24" viewBox="0 0 24 24" fill="none" xmlns="http://www.w3.org/2000/svg">
<g clip-path="url(#clip0_1615_33024)">
<g clip-path="url(#clip1_1615_33024)">
<path fill-rule="evenodd" clip-rule="evenodd" d="M20 2H4C2.9 2 2 2.9 2 4V18C2 19.1 2.9 20 4 20H20C21.1 20 22 19.1 22 18V4C22 2.9 21.1 2 20 2ZM10 16H5V14H10V16ZM10 12H5V10H10V12ZM10 8H5V6H10V8ZM14.82 14L12 11.16L13.41 9.75L14.82 11.17L17.99 8L19.41 9.42L14.82 14Z" fill="white"/>
</g>
</g>
<defs>
<clipPath id="clip0_1615_33024">
<rect width="24" height="24" fill="white"/>
</clipPath>
<clipPath id="clip1_1615_33024">
<rect width="24" height="24" fill="white" transform="translate(0 -1)"/>
</clipPath>
</defs>
</svg>
